0
SECTION
2
HEADER
9
$INSUNITS
70
4
9
$ACADVER
1
AC1014
9
$HANDSEED
5
FFFF
0
ENDSEC
0
SECTION
2
TABLES
0
TABLE
2
VPORT
5
8
100
AcDbSymbolTable
0
ENDTAB
0
TABLE
2
LTYPE
5
5
100
AcDbSymbolTable
0
LTYPE
5
14
100
AcDbSymbolTableRecord
100
AcDbLinetypeTableRecord
2
BYBLOCK
70
0
0
LTYPE
5
15
100
AcDbSymbolTableRecord
100
AcDbLinetypeTableRecord
2
BYLAYER
70
0
0
LTYPE
5
16
100
AcDbSymbolTableRecord
100
AcDbLinetypeTableRecord
2
DASHED
70
0
3
Dashed __ __ __ __ __ __ __ __ __ __ __ __ __ _
72
65
73
2
40
0.75
49
0.5
74
0
49
-0.25
74
0
0
ENDTAB
0
TABLE
2
LAYER
5
2
100
AcDbSymbolTable
70
3
0
LAYER
5
50
100
AcDbSymbolTableRecord
100
AcDbLayerTableRecord
2
1
70
0
62
7
6
DASHED
0
LAYER
5
51
100
AcDbSymbolTableRecord
100
AcDbLayerTableRecord
2
0
70
0
62
7
6
CONTINUOUS
0
ENDTAB
0
TABLE
2
STYLE
5
3
100
AcDbSymbolTable
70
1
0
STYLE
5
11
100
AcDbSymbolTableRecord
100
AcDbTextStyleTableRecord
2
STANDARD
70
0
0
ENDTAB
0
TABLE
2
VIEW
5
6
100
AcDbSymbolTable
70
0
0
ENDTAB
0
TABLE
2
UCS
5
7
100
AcDbSymbolTable
70
0
0
ENDTAB
0
TABLE
2
APPID
5
9
100
AcDbSymbolTable
70
2
0
APPID
5
12
100
AcDbSymbolTableRecord
100
AcDbRegAppTableRecord
2
ACAD
70
0
0
ENDTAB
0
TABLE
2
DIMSTYLE
5
A
100
AcDbSymbolTable
70
1
0
ENDTAB
0
TABLE
2
BLOCK_RECORD
5
1
100
AcDbSymbolTable
70
1
0
BLOCK_RECORD
5
1F
100
AcDbSymbolTableRecord
100
AcDbBlockTableRecord
2
*MODEL_SPACE
0
BLOCK_RECORD
5
1B
100
AcDbSymbolTableRecord
100
AcDbBlockTableRecord
2
*PAPER_SPACE
0
ENDTAB
0
ENDSEC
0
SECTION
2
BLOCKS
0
BLOCK
5
20
100
AcDbEntity
100
AcDbBlockBegin
2
*MODEL_SPACE
0
ENDBLK
5
21
100
AcDbEntity
100
AcDbBlockEnd
0
BLOCK
5
1C
100
AcDbEntity
100
AcDbBlockBegin
2
*PAPER_SPACE
0
ENDBLK
5
1D
100
AcDbEntity
100
AcDbBlockEnd
0
ENDSEC
0
SECTION
2
ENTITIES
0
POINT
5
100
100
AcDbEntity
8
0
100
AcDbPoint
10
80.7489559480385
20
97.712881355995108
30
0
0
POINT
5
101
100
AcDbEntity
8
0
100
AcDbPoint
10
-2.9636699279123895
20
49.496301828617504
30
0
0
POINT
5
102
100
AcDbEntity
8
0
100
AcDbPoint
10
-3.7800000000059746
20
-27.918897274574512
30
0
0
POINT
5
103
100
AcDbEntity
8
0
100
AcDbPoint
10
-3.2800000000025125
20
-28.784922678364921
30
0
0
POINT
5
104
100
AcDbEntity
8
0
100
AcDbPoint
10
80.138492467212089
20
-76.946611759679683
30
0
0
POINT
5
105
100
AcDbEntity
8
0
100
AcDbPoint
10
81.322540378505465
20
-77.052871870811273
30
0
0
POINT
5
106
100
AcDbEntity
8
0
100
AcDbPoint
10
80.322540378507838
20
-77.052871870810037
30
0
0
POINT
5
107
100
AcDbEntity
8
0
100
AcDbPoint
10
147.45790440480837
20
-38.86960164715542
30
0
0
POINT
5
108
100
AcDbEntity
8
0
100
AcDbPoint
10
147.95790440475855
20
-38.003576243455129
30
0
0
POINT
5
109
100
AcDbEntity
8
0
100
AcDbPoint
10
147.95790440484399
20
58.532322141346484
30
0
0
POINT
5
110
100
AcDbEntity
8
0
100
AcDbPoint
10
147.45790440484399
20
59.398347545130797
30
0
0
LWPOLYLINE
5
111
100
AcDbEntity
8
0
100
AcDbPolyline
90
57
70
1
43
0.0
10
107.01377169423962
20
82.479531019467842
10
105.23229709802405
20
83.508065857147358
10
101.90458638460684
20
77.744301828617495
10
94.904586384606858
20
77.744301828617509
10
91.404586384606844
20
83.806479655108575
10
94.732297098023977
20
89.570243683638324
10
93.000400292713834
20
90.57015477039279
10
89.672535577037934
20
84.80612400212641
10
82.672535577037948
20
84.80612400212641
10
79.172535577037948
20
90.868301828617476
10
82.500400292713763
20
96.632332596883757
10
82.362055194982389
20
96.712206176300043
10
83.478642753540498
20
98.646192558822023
10
82.322540378386208
20
99.313668576328084
42
0.26794919243116561
10
79.322540378385852
20
99.313668576327828
10
-4.2800000000002214
20
51.045719383913635
42
0.26794919243108756
10
-5.7799999999998395
20
48.447643172560518
10
-5.7799999999990517
20
-27.918897274574519
42
0.26794919243116011
10
-4.2800000000021132
20
-30.516973485934002
10
79.322540378508137
20
-78.784922678379061
42
0.26794919243108217
10
82.322540378507782
20
-78.784922678378834
10
100.86504548733279
20
-68.079402362348361
10
99.865045487318838
20
-66.347351554755349
10
91.686495363501109
20
-71.0692396703367
10
94.904586384606858
20
-65.495342518400392
10
100.34076842684902
20
-65.495342518400392
10
104.51770175286549
20
-63.08378893823761
10
107.20253557703793
20
-58.433520344891441
10
112.57220322538276
20
-58.433520344891434
10
116.74975256043453
20
-56.02161111174631
10
119.43458638460685
20
-51.371342518400375
10
124.80425403295141
20
-51.371342518400375
10
129.08095894981432
20
-48.902185783404917
10
131.73253557703796
20
-44.309520344891446
10
137.03568883148512
20
-44.309520344891439
10
141.31300975738333
20
-41.840007956913617
10
143.96458638460683
20
-37.247342518400387
10
147.9579044047592
20
-37.247342518400387
10
147.95790440475855
20
-38.003576243455129
42
-0.26794919243170912
10
147.45790440480837
20
-38.869601647155427
10
146.54381475126468
20
-39.397351554693913
10
147.54381475131382
20
-41.129402362347854
10
148.45790440485825
20
-40.601652454810598
42
0.26794919243115756
10
149.95790440475855
20
-38.00357624345687
10
149.95790440484402
20
58.532322141346839
42
0.2679491924310794
10
148.45790440484399
20
61.130398352699714
10
130.15741201752252
20
71.696192558823242
10
129.15741201752206
20
69.964141751253564
10
129.86225605810804
20
69.557199854684569
10
126.43458638460685
20
63.620301828617507
10
119.43458638460685
20
63.620301828617507
10
115.93458638460687
20
69.682479655108565
10
119.24566849954985
20
75.41744210622241
10
117.51377169423968
20
76.417353192976861
10
114.20253557703796
20
70.6821240021264
10
107.20253557703793
20
70.6821240021264
10
103.70253557703796
20
76.744301828617466
0
LWPOLYLINE
5
112
100
AcDbEntity
8
0
100
AcDbPolyline
90
31
70
1
43
0.0
10
-3.1713997198312631
20
7.1243018286174902
10
-3.1713997198312449
20
5.1246574815996198
10
3.7845863846068228
20
5.1246574815996206
10
7.2845863846068371
20
-0.9375203448914482
10
3.7845863846068406
20
-6.9996981713825122
10
-3.1713997198311388
20
-6.9996981713825113
10
-3.1713997198311206
20
-8.9993425184003826
10
3.7845863846068228
20
-8.999342518400379
10
7.2845863846068371
20
-15.061520344891445
10
3.7845863846068406
20
-21.123698171382514
10
-3.1713997198310135
20
-21.123698171382514
10
-3.1713997198309958
20
-23.123342518400385
10
3.7845863846068224
20
-23.123342518400385
10
7.2845863846068371
20
-29.185520344891451
10
4.8169036664098952
20
-33.459672189768234
10
-3.280000000002512
20
-28.784922678364921
42
-0.26794919243111714
10
-3.7800000000059741
20
-27.918897274574512
10
-3.7800000000058591
20
-26.492594222714899
10
-5.6713997198309718
20
-26.492594222714921
10
-5.6713997198315225
20
27.407405777285145
10
-3.7800000000015341
20
27.407405777285163
10
-3.780000000001134
20
32.39476517819697
10
-3.2154136153931616
20
33.372657481599617
10
3.7845863846068224
20
33.372657481599617
10
7.2845863846068371
20
27.310479655108555
10
3.7845863846068406
20
21.248301828617493
10
-3.1713997198313875
20
21.248301828617493
10
-3.1713997198313697
20
19.248657481599622
10
3.7845863846068224
20
19.248657481599622
10
7.2845863846068371
20
13.186479655108556
10
3.7845863846068406
20
7.1243018286174919
0
LWPOLYLINE
5
113
100
AcDbEntity
8
0
100
AcDbPolyline
90
53
70
1
43
0.0
10
111.2614900754884
20
-15.181575558594709
10
116.00390029455605
20
-15.181575558594709
10
115.93458638460687
20
-15.061520344891445
10
119.43458638460685
20
-8.9993425184003826
10
126.43458638460685
20
-8.999342518400379
10
129.93458638460686
20
-15.061520344891445
10
129.86527247465767
20
-15.181575558594709
10
133.06149007548842
20
-15.181575558594709
10
133.06149007548842
20
-16.061520344891445
10
138.73253557703796
20
-16.061520344891441
10
131.73253557703796
20
-28.185875997873605
10
128.43915622589779
20
-22.481575633100551
10
117.49591492817817
20
-22.481575633100551
10
114.20253557703796
20
-28.185875997873605
10
107.20253557703793
20
-28.185875997873605
10
106.9113776256838
20
-27.681575633100557
10
114.26149007548841
20
-27.681575633100554
10
114.26149007548838
20
-22.481575633100551
10
113.0000016838312
20
-22.481575633100551
10
113.0000016838312
20
-26.445482143850384
10
102.61225004984489
20
-26.445482143850381
10
104.27498505194436
20
-24.681575633100547
10
92.749684377101829
20
-24.68157563310055
42
-0.88852331663864259
10
89.373295773875014
20
-24.681575633100561
10
60.949684377101796
20
-24.681575633100557
42
-0.88852331663863948
10
57.57329577387501
20
-24.681575633100557
10
46.229637308643589
20
-24.681575633100561
10
48.000000715255723
20
-26.451484830683182
10
37.472224070364597
20
-26.451484830683185
10
37.472224070364597
20
-15.926409219486573
10
39.061490075488415
20
-17.515267478400126
10
39.061490075488415
20
-6.1697699347139698
42
-0.88852331663863848
10
39.061490075488415
20
-2.793381331487137
10
39.061490075488408
20
23.630230065286042
42
-0.88852331663863682
10
39.061490075488408
20
27.006618668512886
10
39.0614900754884
20
35.6189294302878
10
37.061490075488386
20
33.618929430287778
10
37.061490075488386
20
47.518424366899453
10
50.960985012100068
20
47.518424366899453
10
48.96098501210006
20
45.51842436689946
10
57.573295773874982
20
45.51842436689946
42
-0.88852331663863848
10
60.949684377101804
20
45.518424366899488
10
89.373295773874986
20
45.518424366899467
42
-0.88852331663864337
10
92.749684377101829
20
45.51842436689946
10
104.56335313979083
20
45.518424366899467
10
103.00000153481959
20
47.000000700354569
10
113.0000016838312
20
47.000000700354569
10
113.0000016838312
20
37.523077205850235
10
111.2614900754884
20
39.170651331956712
10
111.2614900754884
20
27.006618668512886
42
-0.88852331663864037
10
111.2614900754884
20
23.630230065286064
10
111.2614900754884
20
-2.7933813314871303
42
-0.88852331663864559
10
111.26149007548838
20
-6.169769934713969
0
CIRCLE
5
114
100
AcDbEntity
8
0
100
AcDbCircle
10
71.822540378473803
20
84.591236711941946
30
0
40
1.6000000000000003
210
-8.8497105131785449e-63
220
-4.9303806576313238e-32
230
1
0
CIRCLE
5
115
100
AcDbEntity
8
0
100
AcDbCircle
10
140.95790440477049
20
-24.14716978295688
30
0
40
1.6000000000000003
210
-8.8497105131785449e-63
220
-4.9303806576313238e-32
230
1
0
CIRCLE
5
116
100
AcDbEntity
8
0
100
AcDbCircle
10
12.220000000000963
20
-29.650948082165179
30
0
40
1.6000000000000003
210
-8.8497105131785449e-63
220
-4.9303806576313238e-32
230
1
0
CIRCLE
5
117
100
AcDbEntity
8
0
100
AcDbCircle
10
80.822540378405435
20
-70.413343775188295
30
0
40
1.6000000000000003
210
-8.8497105131785449e-63
220
-4.9303806576313238e-32
230
1
0
CIRCLE
5
118
100
AcDbEntity
8
0
100
AcDbCircle
10
141.95790440483967
20
55.645570795400673
30
0
40
1.6000000000000003
210
-8.8497105131785449e-63
220
-4.9303806576313238e-32
230
1
0
CIRCLE
5
119
100
AcDbEntity
8
0
100
AcDbCircle
10
2.2200000000001827
20
45.560891826607502
30
0
40
1.6000000000000003
210
-8.8497105131785449e-63
220
-4.9303806576313238e-32
230
1
0
LWPOLYLINE
5
120
100
AcDbEntity
8
0
100
AcDbPolyline
90
6
70
1
43
0.0
10
67.742889268805627
20
-27.681575633100568
10
80.006283500408045
20
-27.681575633100572
10
80.874586384606829
20
-29.185520344891451
10
77.374586384606843
20
-35.24769817138251
10
70.374586384606843
20
-35.24769817138251
10
66.874586384606857
20
-29.185520344891451
0
LWPOLYLINE
5
121
100
AcDbEntity
8
0
100
AcDbPolyline
90
4
70
1
43
0.0
10
82.381377625683797
20
-27.681575633100572
10
87.619107179876721
20
-27.681575633100572
42
0.03973885373805882
10
88.168713069298263
20
-28.185875997873598
10
82.672535577037948
20
-28.185875997873605
0
LWPOLYLINE
5
122
100
AcDbEntity
8
0
100
AcDbPolyline
90
7
70
1
43
0.0
10
91.414529937249483
20
-29.16829760650668
42
0.18887059096611714
10
94.503872971100108
20
-27.681575633100557
10
104.53628350040803
20
-27.681575633100557
10
105.40458638460683
20
-29.185520344891451
10
101.90458638460684
20
-35.24769817138251
10
94.904586384606858
20
-35.24769817138251
10
91.404586384606844
20
-29.185520344891451
0
LWPOLYLINE
5
123
100
AcDbEntity
8
0
100
AcDbPolyline
90
4
70
1
43
0.0
10
114.26149007548838
20
-13.959763811222746
10
114.26149007548837
20
-7.9239585287122916
42
0.19999200732497244
10
115.75903539375332
20
-4.6334571094140902
10
117.70253557703798
20
-7.9996981713825175
0
LWPOLYLINE
5
124
100
AcDbEntity
8
0
100
AcDbPolyline
90
3
70
1
43
0.0
10
114.26149007548838
20
0.16423618877725923
10
114.26149007548838
20
12.084367468457726
10
117.70253557703798
20
6.1243018286174866
0
LWPOLYLINE
5
125
100
AcDbEntity
8
0
100
AcDbPolyline
90
4
70
1
43
0.0
10
114.26149007548838
20
14.288236188777264
10
114.26149007548838
20
21.87604147128777
42
0.13285614340320537
10
115.56044804163369
20
23.95850627419771
10
117.70253557703798
20
20.248301828617485
0
LWPOLYLINE
5
126
100
AcDbEntity
8
0
100
AcDbPolyline
90
4
70
1
43
0.0
10
114.39069037656742
20
28.636017674599373
42
0.0095553963862125332
10
114.26149007548838
20
28.760807262511161
10
114.26149007548838
20
40.332367468457726
10
117.70253557703798
20
34.372301828617481
0
LWPOLYLINE
5
127
100
AcDbEntity
8
0
100
AcDbPolyline
90
6
70
1
43
0.0
10
114.26149007548838
20
42.536236188777281
10
114.26149007548838
20
48.518424366899467
10
103.71530803047021
20
48.518424366899453
10
107.20253557703793
20
54.558479655108563
10
114.20253557703796
20
54.558479655108563
10
117.70253557703798
20
48.49630182861749
0
LWPOLYLINE
5
128
100
AcDbEntity
8
0
100
AcDbPolyline
90
5
70
1
43
0.0
10
92.407373947997073
20
49.821600646118512
42
0.28547024810285698
10
87.619107179876664
20
48.51842436689946
10
79.18530803047021
20
48.518424366899467
10
82.672535577037948
20
54.558479655108563
10
89.672535577037976
20
54.558479655108563
0
LWPOLYLINE
5
129
100
AcDbEntity
8
0
100
AcDbPolyline
90
6
70
1
43
0.0
10
68.629763123605713
20
48.518424366899467
10
62.703872971100061
20
48.518424366899488
42
0.4357446703305955
10
55.819107179876667
20
48.518424366899453
10
54.655308030470195
20
48.518424366899453
10
58.142535577037947
20
54.558479655108563
10
65.142535577037961
20
54.558479655108563
0
LWPOLYLINE
5
130
100
AcDbEntity
8
0
100
AcDbPolyline
90
7
70
1
43
0.0
10
44.099763123605726
20
48.518424366899453
10
36.061490075488379
20
48.518424366899453
10
36.061490075488386
20
42.434124002126403
10
33.61253557703796
20
42.434124002126403
10
30.112535577037953
20
48.496301828617476
10
33.61253557703796
20
54.558479655108563
10
40.612535577037967
20
54.558479655108563
0
LWPOLYLINE
5
131
100
AcDbEntity
8
0
100
AcDbPolyline
90
6
70
1
43
0.0
10
36.061490075488386
20
40.434479655108568
10
36.061490075488393
20
28.760807262511175
42
0.032981767162403343
10
35.636613071701497
20
28.310124002126397
10
33.61253557703796
20
28.3101240021264
10
30.112535577037953
20
34.372301828617474
10
33.61253557703796
20
40.434479655108568
0
LWPOLYLINE
5
132
100
AcDbEntity
8
0
100
AcDbPolyline
90
6
70
1
43
0.0
10
34.667382294304275
20
26.310479655108558
42
0.26456249270781262
10
36.061490075488393
20
21.876041471287738
10
36.061490075488393
20
14.186124002126403
10
33.61253557703796
20
14.186124002126403
10
30.112535577037953
20
20.248301828617478
10
33.61253557703796
20
26.310479655108551
0
LWPOLYLINE
5
133
100
AcDbEntity
8
0
100
AcDbPolyline
90
5
70
1
43
0.0
10
36.061490075488393
20
12.18647965510856
10
36.061490075488393
20
0.062124002126400235
10
33.61253557703796
20
0.062124002126399167
10
30.112535577037953
20
6.1243018286174724
10
33.61253557703796
20
12.186479655108551
0
LWPOLYLINE
5
134
100
AcDbEntity
8
0
100
AcDbPolyline
90
6
70
1
43
0.0
10
35.309556031183604
20
-1.9375203448914458
42
0.36328453638736202
10
36.061490075488393
20
-7.9239585287122685
10
36.061490075488393
20
-14.061875997873603
10
33.61253557703796
20
-14.061875997873601
10
30.112535577037953
20
-7.9996981713825299
10
33.61253557703796
20
-1.9375203448914491
0
LWPOLYLINE
5
135
100
AcDbEntity
8
0
100
AcDbPolyline
90
7
70
1
43
0.0
10
36.061490075488393
20
-16.061520344891445
10
36.061490075488393
20
-27.681575633100568
10
40.903693528392097
20
-27.681575633100568
10
40.612535577037946
20
-28.185875997873605
10
33.612535577037953
20
-28.185875997873605
10
30.112535577037953
20
-22.123698171382529
10
33.61253557703796
20
-16.061520344891449
0
LWPOLYLINE
5
136
100
AcDbEntity
8
0
100
AcDbPolyline
90
6
70
1
43
0.0
10
43.212889268805633
20
-27.681575633100568
10
55.476283500408044
20
-27.681575633100564
10
56.344586384606842
20
-29.185520344891451
10
52.844586384606842
20
-35.24769817138251
10
45.844586384606842
20
-35.24769817138251
10
42.344586384606856
20
-29.185520344891451
0
LWPOLYLINE
5
137
100
AcDbEntity
8
0
100
AcDbPolyline
90
3
70
1
43
0.0
10
7.1587145408681829
20
55.340463226510835
10
3.7845863846068406
20
49.496301828617504
10
-2.9636699279123895
20
49.496301828617504
0
LWPOLYLINE
5
138
100
AcDbEntity
8
0
100
AcDbPolyline
90
6
70
1
43
0.0
10
33.61253557703796
20
-30.185520344891454
10
40.612535577037967
20
-30.185520344891444
10
44.11253557703796
20
-36.247698171382517
10
40.612535577037946
20
-42.309875997873611
10
33.612535577037953
20
-42.309875997873611
10
30.112535577037953
20
-36.247698171382538
0
LWPOLYLINE
5
139
100
AcDbEntity
8
0
100
AcDbPolyline
90
6
70
1
43
0.0
10
45.844586384606842
20
-37.247342518400387
10
52.844586384606828
20
-37.247342518400387
10
56.344586384606842
20
-43.309520344891446
10
52.844586384606842
20
-49.371698171382505
10
45.844586384606842
20
-49.371698171382505
10
42.344586384606856
20
-43.309520344891446
0
LWPOLYLINE
5
140
100
AcDbEntity
8
0
100
AcDbPolyline
90
6
70
1
43
0.0
10
107.20253557703793
20
68.682479655108565
10
114.20253557703796
20
68.682479655108565
10
117.70253557703798
20
62.620301828617492
10
114.20253557703796
20
56.558124002126398
10
107.20253557703793
20
56.558124002126398
10
103.70253557703796
20
62.620301828617471
0
LWPOLYLINE
5
141
100
AcDbEntity
8
0
100
AcDbPolyline
90
6
70
1
43
0.0
10
131.73253557703796
20
-1.9375203448914491
10
138.73253557703796
20
-1.9375203448914402
10
142.23253557703796
20
-7.9996981713825175
10
138.73253557703796
20
-14.061875997873603
10
131.73253557703796
20
-14.061875997873601
10
128.23253557703796
20
-7.9996981713825299
0
LWPOLYLINE
5
142
100
AcDbEntity
8
0
100
AcDbPolyline
90
6
70
1
43
0.0
10
119.43458638460685
20
47.496657481599634
10
126.43458638460685
20
47.496657481599634
10
129.93458638460686
20
41.434479655108561
10
126.43458638460685
20
35.372301828617488
10
119.43458638460685
20
35.372301828617488
10
115.93458638460687
20
41.434479655108561
0
LWPOLYLINE
5
143
100
AcDbEntity
8
0
100
AcDbPolyline
90
6
70
1
43
0.0
10
94.904586384606858
20
61.620657481599636
10
101.90458638460682
20
61.620657481599636
10
105.40458638460683
20
55.558479655108563
10
101.90458638460684
20
49.496301828617504
10
94.904586384606858
20
49.496301828617504
10
91.404586384606844
20
55.558479655108563
0
LWPOLYLINE
5
144
100
AcDbEntity
8
0
100
AcDbPolyline
90
6
70
1
43
0.0
10
131.73253557703796
20
40.434479655108568
10
138.73253557703796
20
40.434479655108568
10
142.23253557703796
20
34.372301828617481
10
138.73253557703796
20
28.3101240021264
10
131.73253557703796
20
28.3101240021264
10
128.23253557703796
20
34.372301828617474
0
LWPOLYLINE
5
145
100
AcDbEntity
8
0
100
AcDbPolyline
90
6
70
1
43
0.0
10
21.314586384606848
20
33.372657481599617
10
28.31458638460683
20
33.372657481599617
10
31.814586384606844
20
27.310479655108555
10
28.314586384606848
20
21.248301828617493
10
21.314586384606848
20
21.248301828617493
10
17.814586384606855
20
27.310479655108555
0
LWPOLYLINE
5
146
100
AcDbEntity
8
0
100
AcDbPolyline
90
6
70
1
43
0.0
10
9.0825355770379481
20
40.434479655108568
10
16.082535577037959
20
40.434479655108568
10
19.582535577037966
20
34.372301828617481
10
16.082535577037952
20
28.3101240021264
10
9.0825355770379481
20
28.3101240021264
10
5.5825355770379437
20
34.372301828617474
0
LWPOLYLINE
5
147
100
AcDbEntity
8
0
100
AcDbPolyline
90
6
70
1
43
0.0
10
131.73253557703796
20
26.310479655108551
10
138.73253557703796
20
26.310479655108558
10
142.23253557703796
20
20.248301828617485
10
138.73253557703796
20
14.186124002126403
10
131.73253557703796
20
14.186124002126403
10
128.23253557703796
20
20.248301828617478
0
LWPOLYLINE
5
148
100
AcDbEntity
8
0
100
AcDbPolyline
90
6
70
1
43
0.0
10
9.0825355770379481
20
54.558479655108563
10
16.082535577037959
20
54.558479655108563
10
19.582535577037966
20
48.49630182861749
10
16.082535577037952
20
42.434124002126403
10
9.0825355770379481
20
42.434124002126403
10
5.5825355770379437
20
48.496301828617476
0
LWPOLYLINE
5
149
100
AcDbEntity
8
0
100
AcDbPolyline
90
6
70
1
43
0.0
10
131.73253557703796
20
-30.185520344891454
10
138.73253557703796
20
-30.185520344891444
10
142.23253557703796
20
-36.247698171382517
10
138.73253557703796
20
-42.309875997873611
10
131.73253557703796
20
-42.309875997873611
10
128.23253557703796
20
-36.247698171382538
0
LWPOLYLINE
5
150
100
AcDbEntity
8
0
100
AcDbPolyline
90
6
70
1
43
0.0
10
21.314586384606848
20
61.620657481599636
10
28.31458638460683
20
61.620657481599636
10
31.814586384606844
20
55.558479655108563
10
28.314586384606848
20
49.496301828617504
10
21.314586384606848
20
49.496301828617504
10
17.814586384606855
20
55.558479655108563
0
LWPOLYLINE
5
151
100
AcDbEntity
8
0
100
AcDbPolyline
90
6
70
1
43
0.0
10
45.844586384606842
20
61.620657481599636
10
52.844586384606828
20
61.620657481599636
10
56.344586384606842
20
55.558479655108563
10
52.844586384606842
20
49.496301828617504
10
45.844586384606842
20
49.496301828617504
10
42.344586384606856
20
55.558479655108563
0
LWPOLYLINE
5
152
100
AcDbEntity
8
0
100
AcDbPolyline
90
6
70
1
43
0.0
10
21.314586384606848
20
47.496657481599634
10
28.31458638460683
20
47.496657481599634
10
31.814586384606844
20
41.434479655108561
10
28.314586384606848
20
35.372301828617488
10
21.314586384606848
20
35.372301828617488
10
17.814586384606855
20
41.434479655108561
0
LWPOLYLINE
5
153
100
AcDbEntity
8
0
100
AcDbPolyline
90
6
70
1
43
0.0
10
21.314586384606848
20
19.248657481599622
10
28.31458638460683
20
19.248657481599622
10
31.814586384606844
20
13.186479655108556
10
28.314586384606848
20
7.1243018286174919
10
21.314586384606848
20
7.1243018286174911
10
17.814586384606855
20
13.186479655108556
0
LWPOLYLINE
5
154
100
AcDbEntity
8
0
100
AcDbPolyline
90
6
70
1
43
0.0
10
119.43458638460685
20
-23.123342518400385
10
126.43458638460685
20
-23.123342518400385
10
129.93458638460686
20
-29.185520344891451
10
126.43458638460685
20
-35.24769817138251
10
119.43458638460685
20
-35.24769817138251
10
115.93458638460687
20
-29.185520344891451
0
LWPOLYLINE
5
155
100
AcDbEntity
8
0
100
AcDbPolyline
90
6
70
1
43
0.0
10
107.20253557703793
20
-30.185520344891454
10
114.20253557703796
20
-30.185520344891444
10
117.70253557703798
20
-36.247698171382517
10
114.20253557703796
20
-42.309875997873611
10
107.20253557703793
20
-42.309875997873611
10
103.70253557703796
20
-36.247698171382538
0
LWPOLYLINE
5
156
100
AcDbEntity
8
0
100
AcDbPolyline
90
6
70
1
43
0.0
10
131.73253557703796
20
12.186479655108551
10
138.73253557703796
20
12.18647965510856
10
142.23253557703796
20
6.1243018286174866
10
138.73253557703796
20
0.062124002126399125
10
131.73253557703796
20
0.062124002126399167
10
128.23253557703796
20
6.1243018286174724
0
LWPOLYLINE
5
157
100
AcDbEntity
8
0
100
AcDbPolyline
90
5
70
1
43
0.0
10
131.73253557703796
20
54.558479655108563
10
142.23253557703796
20
48.49630182861749
10
138.73253557703796
20
42.434124002126403
10
131.73253557703796
20
42.434124002126403
10
128.23253557703796
20
48.496301828617476
0
LWPOLYLINE
5
158
100
AcDbEntity
8
0
100
AcDbPolyline
90
6
70
1
43
0.0
10
119.43458638460685
20
5.1246574815996206
10
126.43458638460685
20
5.1246574815996206
10
129.93458638460686
20
-0.9375203448914482
10
126.43458638460685
20
-6.9996981713825122
10
119.43458638460685
20
-6.9996981713825122
10
115.93458638460687
20
-0.9375203448914482
0
LWPOLYLINE
5
159
100
AcDbEntity
8
0
100
AcDbPolyline
90
6
70
1
43
0.0
10
58.142535577037947
20
-30.185520344891454
10
65.142535577037961
20
-30.185520344891444
10
68.642535577037961
20
-36.247698171382517
10
65.142535577037947
20
-42.309875997873611
10
58.142535577037947
20
-42.309875997873611
10
54.642535577037947
20
-36.247698171382538
0
LWPOLYLINE
5
160
100
AcDbEntity
8
0
100
AcDbPolyline
90
6
70
1
43
0.0
10
70.374586384606843
20
61.620657481599636
10
77.374586384606829
20
61.620657481599636
10
80.874586384606829
20
55.558479655108563
10
77.374586384606843
20
49.496301828617504
10
70.374586384606843
20
49.496301828617504
10
66.874586384606857
20
55.558479655108563
0
LWPOLYLINE
5
161
100
AcDbEntity
8
0
100
AcDbPolyline
90
4
70
1
43
0.0
10
9.0825355770379481
20
-16.061520344891449
10
16.082535577037959
20
-16.061520344891441
10
19.582535577037966
20
-22.123698171382522
10
5.5825355770379437
20
-22.123698171382529
0
LWPOLYLINE
5
162
100
AcDbEntity
8
0
100
AcDbPolyline
90
6
70
1
43
0.0
10
119.43458638460685
20
61.620657481599636
10
126.43458638460685
20
61.620657481599636
10
129.93458638460686
20
55.558479655108563
10
126.43458638460685
20
49.496301828617504
10
119.43458638460685
20
49.496301828617504
10
115.93458638460687
20
55.558479655108563
0
LWPOLYLINE
5
163
100
AcDbEntity
8
0
100
AcDbPolyline
90
6
70
1
43
0.0
10
82.672535577037948
20
-30.185520344891454
10
89.672535577037976
20
-30.185520344891444
10
93.172535577037948
20
-36.247698171382517
10
89.672535577037934
20
-42.309875997873611
10
82.672535577037948
20
-42.309875997873611
10
79.172535577037948
20
-36.247698171382538
0
LWPOLYLINE
5
164
100
AcDbEntity
8
0
100
AcDbPolyline
90
6
70
1
43
0.0
10
119.43458638460685
20
19.248657481599622
10
126.43458638460685
20
19.248657481599622
10
129.93458638460686
20
13.186479655108556
10
126.43458638460685
20
7.1243018286174919
10
119.43458638460685
20
7.1243018286174911
10
115.93458638460687
20
13.186479655108556
0
LWPOLYLINE
5
165
100
AcDbEntity
8
0
100
AcDbPolyline
90
6
70
1
43
0.0
10
21.314586384606848
20
-8.9993425184003826
10
28.31458638460683
20
-8.999342518400379
10
31.814586384606844
20
-15.061520344891445
10
28.314586384606848
20
-21.123698171382514
10
21.314586384606848
20
-21.123698171382514
10
17.814586384606855
20
-15.061520344891445
0
LWPOLYLINE
5
166
100
AcDbEntity
8
0
100
AcDbPolyline
90
6
70
1
43
0.0
10
119.43458638460685
20
33.372657481599617
10
126.43458638460685
20
33.372657481599617
10
129.93458638460686
20
27.310479655108555
10
126.43458638460685
20
21.248301828617493
10
119.43458638460685
20
21.248301828617493
10
115.93458638460687
20
27.310479655108555
0
LWPOLYLINE
5
167
100
AcDbEntity
8
0
100
AcDbPolyline
90
6
70
1
43
0.0
10
21.314586384606848
20
5.1246574815996206
10
28.31458638460683
20
5.1246574815996206
10
31.814586384606844
20
-0.9375203448914482
10
28.314586384606848
20
-6.9996981713825122
10
21.314586384606848
20
-6.9996981713825122
10
17.814586384606855
20
-0.9375203448914482
0
LWPOLYLINE
5
168
100
AcDbEntity
8
0
100
AcDbPolyline
90
6
70
1
43
0.0
10
9.0825355770379481
20
12.186479655108551
10
16.082535577037959
20
12.18647965510856
10
19.582535577037966
20
6.1243018286174866
10
16.082535577037952
20
0.062124002126399125
10
9.0825355770379481
20
0.062124002126399167
10
5.5825355770379437
20
6.1243018286174724
0
LWPOLYLINE
5
169
100
AcDbEntity
8
0
100
AcDbPolyline
90
6
70
1
43
0.0
10
9.0825355770379481
20
-1.9375203448914491
10
16.082535577037959
20
-1.9375203448914402
10
19.582535577037966
20
-7.9996981713825175
10
16.082535577037952
20
-14.061875997873603
10
9.0825355770379481
20
-14.061875997873601
10
5.5825355770379437
20
-7.9996981713825299
0
LWPOLYLINE
5
170
100
AcDbEntity
8
0
100
AcDbPolyline
90
6
70
1
43
0.0
10
9.0825355770379481
20
26.310479655108551
10
16.082535577037959
20
26.310479655108558
10
19.582535577037966
20
20.248301828617485
10
16.082535577037952
20
14.186124002126403
10
9.0825355770379481
20
14.186124002126403
10
5.5825355770379437
20
20.248301828617478
0
LWPOLYLINE
5
171
100
AcDbEntity
8
0
100
AcDbPolyline
90
6
70
1
43
0.0
10
21.314586384606848
20
-23.123342518400385
10
28.31458638460683
20
-23.123342518400385
10
31.814586384606844
20
-29.185520344891451
10
28.314586384606848
20
-35.24769817138251
10
21.314586384606848
20
-35.24769817138251
10
17.814586384606855
20
-29.185520344891451
0
LWPOLYLINE
5
172
100
AcDbEntity
8
0
100
AcDbPolyline
90
6
70
1
43
0.0
10
70.374586384606843
20
75.744657481599631
10
77.374586384606829
20
75.744657481599631
10
80.874586384606829
20
69.682479655108565
10
77.374586384606843
20
63.620301828617507
10
70.374586384606843
20
63.620301828617507
10
66.874586384606857
20
69.682479655108565
0
LWPOLYLINE
5
173
100
AcDbEntity
8
0
100
AcDbPolyline
90
6
70
1
43
0.0
10
82.672535577037948
20
68.682479655108565
10
89.672535577037976
20
68.682479655108565
10
93.172535577037948
20
62.620301828617492
10
89.672535577037934
20
56.558124002126398
10
82.672535577037948
20
56.558124002126398
10
79.172535577037948
20
62.620301828617471
0
LWPOLYLINE
5
174
100
AcDbEntity
8
0
100
AcDbPolyline
90
6
70
1
43
0.0
10
58.142535577037947
20
82.806479655108546
10
65.142535577037961
20
82.806479655108546
10
68.642535577037961
20
76.744301828617481
10
65.142535577037947
20
70.6821240021264
10
58.142535577037947
20
70.6821240021264
10
54.642535577037947
20
76.744301828617466
0
LWPOLYLINE
5
175
100
AcDbEntity
8
0
100
AcDbPolyline
90
6
70
1
43
0.0
10
58.142535577037947
20
68.682479655108565
10
65.142535577037961
20
68.682479655108565
10
68.642535577037961
20
62.620301828617492
10
65.142535577037947
20
56.558124002126398
10
58.142535577037947
20
56.558124002126398
10
54.642535577037947
20
62.620301828617471
0
LWPOLYLINE
5
176
100
AcDbEntity
8
0
100
AcDbPolyline
90
6
70
1
43
0.0
10
33.61253557703796
20
68.682479655108565
10
40.612535577037967
20
68.682479655108565
10
44.11253557703796
20
62.620301828617492
10
40.612535577037946
20
56.558124002126398
10
33.612535577037953
20
56.558124002126398
10
30.112535577037953
20
62.620301828617471
0
LWPOLYLINE
5
177
100
AcDbEntity
8
0
100
AcDbPolyline
90
6
70
1
43
0.0
10
45.844586384606842
20
75.744657481599631
10
52.844586384606828
20
75.744657481599631
10
56.344586384606842
20
69.682479655108565
10
52.844586384606842
20
63.620301828617507
10
45.844586384606842
20
63.620301828617507
10
42.344586384606856
20
69.682479655108565
0
LWPOLYLINE
5
178
100
AcDbEntity
8
0
100
AcDbPolyline
90
6
70
1
43
0.0
10
94.904586384606858
20
75.744657481599631
10
101.90458638460682
20
75.744657481599631
10
105.40458638460683
20
69.682479655108565
10
101.90458638460684
20
63.620301828617507
10
94.904586384606858
20
63.620301828617507
10
91.404586384606844
20
69.682479655108565
0
LWPOLYLINE
5
179
100
AcDbEntity
8
0
100
AcDbPolyline
90
6
70
1
43
0.0
10
82.672535577037948
20
82.806479655108546
10
89.672535577037976
20
82.806479655108546
10
93.172535577037948
20
76.744301828617481
10
89.672535577037934
20
70.6821240021264
10
82.672535577037948
20
70.6821240021264
10
79.172535577037948
20
76.744301828617466
0
LWPOLYLINE
5
180
100
AcDbEntity
8
0
100
AcDbPolyline
90
6
70
1
43
0.0
10
119.43458638460685
20
-37.247342518400387
10
126.43458638460685
20
-37.247342518400387
10
129.93458638460686
20
-43.309520344891446
10
126.43458638460685
20
-49.371698171382505
10
119.43458638460685
20
-49.371698171382505
10
115.93458638460687
20
-43.309520344891446
0
LWPOLYLINE
5
181
100
AcDbEntity
8
0
100
AcDbPolyline
90
6
70
1
43
0.0
10
94.904586384606858
20
-51.371342518400375
10
101.90458638460682
20
-51.371342518400375
10
105.40458638460683
20
-57.433520344891448
10
101.90458638460684
20
-63.4956981713825
10
94.904586384606858
20
-63.4956981713825
10
91.404586384606844
20
-57.433520344891448
0
LWPOLYLINE
5
182
100
AcDbEntity
8
0
100
AcDbPolyline
90
6
70
1
43
0.0
10
82.672535577037948
20
-44.309520344891446
10
89.672535577037976
20
-44.309520344891446
10
93.172535577037948
20
-50.371698171382519
10
89.672535577037934
20
-56.433875997873606
10
82.672535577037948
20
-56.433875997873606
10
79.172535577037948
20
-50.371698171382533
0
LWPOLYLINE
5
183
100
AcDbEntity
8
0
100
AcDbPolyline
90
6
70
1
43
0.0
10
94.904586384606858
20
-37.247342518400387
10
101.90458638460682
20
-37.247342518400387
10
105.40458638460683
20
-43.309520344891446
10
101.90458638460684
20
-49.371698171382505
10
94.904586384606858
20
-49.371698171382505
10
91.404586384606844
20
-43.309520344891446
0
LWPOLYLINE
5
184
100
AcDbEntity
8
0
100
AcDbPolyline
90
6
70
1
43
0.0
10
58.142535577037947
20
-44.309520344891446
10
65.142535577037961
20
-44.309520344891446
10
68.642535577037961
20
-50.371698171382519
10
65.142535577037947
20
-56.433875997873606
10
58.142535577037947
20
-56.433875997873606
10
54.642535577037947
20
-50.371698171382533
0
LWPOLYLINE
5
185
100
AcDbEntity
8
0
100
AcDbPolyline
90
6
70
1
43
0.0
10
70.374586384606843
20
-51.371342518400375
10
77.374586384606829
20
-51.371342518400375
10
80.874586384606829
20
-57.433520344891448
10
77.374586384606843
20
-63.4956981713825
10
70.374586384606843
20
-63.4956981713825
10
66.874586384606857
20
-57.433520344891448
0
LWPOLYLINE
5
186
100
AcDbEntity
8
0
100
AcDbPolyline
90
6
70
1
43
0.0
10
70.374586384606843
20
-37.247342518400387
10
77.374586384606829
20
-37.247342518400387
10
80.874586384606829
20
-43.309520344891446
10
77.374586384606843
20
-49.371698171382505
10
70.374586384606843
20
-49.371698171382505
10
66.874586384606857
20
-43.309520344891446
0
LWPOLYLINE
5
187
100
AcDbEntity
8
0
100
AcDbPolyline
90
6
70
1
43
0.0
10
107.20253557703793
20
-44.309520344891446
10
114.20253557703796
20
-44.309520344891446
10
117.70253557703798
20
-50.371698171382519
10
114.20253557703796
20
-56.433875997873606
10
107.20253557703793
20
-56.433875997873606
10
103.70253557703796
20
-50.371698171382533
0
LWPOLYLINE
5
188
100
AcDbEntity
8
0
100
AcDbPolyline
90
5
70
1
43
0.0
10
82.672535577037948
20
-58.433520344891441
10
89.672535577037976
20
-58.433520344891441
10
93.172535577037948
20
-64.495698171382514
10
89.672535577037934
20
-70.557875997873609
10
79.172535577037948
20
-64.495698171382529
0
LWPOLYLINE
5
189
100
AcDbEntity
8
0
100
AcDbPolyline
90
3
70
1
43
0.0
10
17.098378262627012
20
-40.550384853936137
10
6.5983782626256771
20
-34.488207027447373
10
19.582535577037966
20
-36.247698171382517
0
LWPOLYLINE
5
190
100
AcDbEntity
8
0
100
AcDbPolyline
90
5
70
1
43
0.0
10
29.330275067938707
20
-47.612473767178997
10
18.830275067937386
20
-41.550295940690233
10
21.314586384606848
20
-37.247342518400387
10
28.31458638460683
20
-37.247342518400387
10
31.814586384606844
20
-43.309520344891446
0
LWPOLYLINE
5
191
100
AcDbEntity
8
0
100
AcDbPolyline
90
5
70
1
43
0.0
10
41.611749664155809
20
-54.703186431346921
10
31.111749664154488
20
-48.641008604858136
10
33.61253557703796
20
-44.309520344891446
10
40.612535577037967
20
-44.309520344891446
10
44.11253557703796
20
-50.371698171382519
0
LWPOLYLINE
5
192
100
AcDbEntity
8
0
100
AcDbPolyline
90
5
70
1
43
0.0
10
53.843646469467501
20
-61.765275344589774
10
43.343646469466186
20
-55.703097518101011
10
45.844586384606842
20
-51.371342518400375
10
52.844586384606828
20
-51.371342518400375
10
56.344586384606842
20
-57.433520344891448
0
LWPOLYLINE
5
193
100
AcDbEntity
8
0
100
AcDbPolyline
90
5
70
1
43
0.0
10
66.12512106568461
20
-68.855988008757677
10
55.625121065683288
20
-62.793810182268921
10
58.142535577037947
20
-58.433520344891441
10
65.142535577037961
20
-58.433520344891441
10
68.642535577037961
20
-64.495698171382514
0
LWPOLYLINE
5
194
100
AcDbEntity
8
0
100
AcDbPolyline
90
4
70
1
43
0.0
10
73.107017870995634
20
-72.886988008756163
10
67.857017870994994
20
-69.855899095511774
10
70.374586384606843
20
-65.495342518400392
10
77.374586384606829
20
-65.495342518400392
0
LWPOLYLINE
5
195
100
AcDbEntity
8
0
100
AcDbPolyline
90
4
70
1
43
0.0
10
147.95790440477171
20
-23.123342518400385
10
147.957904404761
20
-35.24769817138251
10
143.96458638460683
20
-35.24769817138251
10
140.46458638460686
20
-29.185520344891451
0
LWPOLYLINE
5
196
100
AcDbEntity
8
0
100
AcDbPolyline
90
5
70
1
43
0.0
10
147.95790440478422
20
-8.9993425184003826
10
147.9579044047735
20
-21.123698171382514
10
143.96458638460683
20
-21.123698171382514
10
140.46458638460686
20
-15.061520344891445
10
143.96458638460683
20
-8.9993425184003826
0
LWPOLYLINE
5
197
100
AcDbEntity
8
0
100
AcDbPolyline
90
5
70
1
43
0.0
10
147.95790440479672
20
5.1246574815996162
10
147.95790440478601
20
-6.9996981713825122
10
143.96458638460683
20
-6.9996981713825122
10
140.46458638460686
20
-0.9375203448914482
10
143.96458638460683
20
5.1246574815996206
0
LWPOLYLINE
5
198
100
AcDbEntity
8
0
100
AcDbPolyline
90
5
70
1
43
0.0
10
147.95790440480923
20
19.248657481599629
10
147.95790440479851
20
7.1243018286174875
10
143.96458638460683
20
7.1243018286174911
10
140.46458638460686
20
13.186479655108556
10
143.96458638460683
20
19.248657481599622
0
LWPOLYLINE
5
199
100
AcDbEntity
8
0
100
AcDbPolyline
90
5
70
1
43
0.0
10
147.9579044048217
20
33.372657481599617
10
147.95790440481096
20
21.248301828617493
10
143.96458638460683
20
21.248301828617493
10
140.46458638460686
20
27.310479655108555
10
143.96458638460683
20
33.372657481599617
0
LWPOLYLINE
5
200
100
AcDbEntity
8
0
100
AcDbPolyline
90
5
70
1
43
0.0
10
147.95790440483421
20
47.496657481599634
10
147.95790440482347
20
35.372301828617488
10
143.96458638460683
20
35.372301828617488
10
140.46458638460686
20
41.434479655108561
10
143.96458638460683
20
47.496657481599634
0
LWPOLYLINE
5
201
100
AcDbEntity
8
0
100
AcDbPolyline
90
4
70
1
43
0.0
10
131.6437306543236
20
68.528665017005054
10
142.14373065432366
20
62.46648719051408
10
131.73253557703796
20
56.558124002126398
10
128.23253557703796
20
62.620301828617471
0
LWPOLYLINE
5
202
100
AcDbEntity
8
0
100
AcDbPolyline
90
4
70
1
43
0.0
10
70.426786890371019
20
91.86830182861749
10
80.322540378386094
20
97.581617768759088
42
-0.11296380209579322
10
80.7489559480385
20
97.712881355995108
10
77.374586384606843
20
91.86830182861749
0
LWPOLYLINE
5
203
100
AcDbEntity
8
0
100
AcDbPolyline
90
3
70
1
43
0.0
10
58.194736082806287
20
84.80612400212641
10
68.616435324155574
20
90.823094864534795
10
65.142535577037947
20
84.80612400212641
0
LWPOLYLINE
5
204
100
AcDbEntity
8
0
100
AcDbPolyline
90
3
70
1
43
0.0
10
45.96330128427654
20
77.744301828617509
10
56.285228934773755
20
83.703669536189949
10
52.844586384606842
20
77.744301828617495
0
LWPOLYLINE
5
205
100
AcDbEntity
8
0
100
AcDbPolyline
90
3
70
1
43
0.0
10
33.731250476711807
20
70.6821240021264
10
44.053178127202784
20
76.641491709695259
10
40.612535577037946
20
70.6821240021264
0
LWPOLYLINE
5
206
100
AcDbEntity
8
0
100
AcDbPolyline
90
3
70
1
43
0.0
10
21.499815678182088
20
63.620301828617507
10
31.721971737820979
20
69.522066381350399
10
28.314586384606848
20
63.620301828617507
0
LWPOLYLINE
5
207
100
AcDbEntity
8
0
100
AcDbPolyline
90
3
70
1
43
0.0
10
9.2677648706173308
20
56.558124002126398
10
19.489920930250001
20
62.459888554855702
10
16.082535577037952
20
56.558124002126398
0
LWPOLYLINE
5
208
100
AcDbEntity
8
0
100
AcDbPolyline
90
4
70
1
43
0.0
10
65.433693528392098
20
-27.681575633100568
10
65.142535577037947
20
-28.185875997873605
10
62.154267081678476
20
-28.185875997873605
42
0.039738853738060929
10
62.703872971100061
20
-27.681575633100568
0
LINE
5
209
100
AcDbEntity
8
0
100
AcDbLine
10
37.472224070364597
20
-15.926409219486573
30
0
11
37.472224070364604
21
-26.451484830683185
31
0
0
LINE
5
210
100
AcDbEntity
8
0
100
AcDbLine
10
37.472224070364604
20
-26.451484830683185
30
0
11
48.000000715255723
21
-26.451484830683182
31
0
0
LINE
5
211
100
AcDbEntity
8
0
100
AcDbLine
10
102.61225004984489
20
-26.445482143850381
30
0
11
113.0000016838312
21
-26.445482143850384
31
0
0
LINE
5
212
100
AcDbEntity
8
0
100
AcDbLine
10
113.0000016838312
20
-26.445482143850384
30
0
11
113.0000016838312
21
-22.481575633100551
31
0
0
LINE
5
213
100
AcDbEntity
8
0
100
AcDbLine
10
113.0000016838312
20
37.523077205850235
30
0
11
113.0000016838312
21
47.000000700354569
31
0
0
LINE
5
214
100
AcDbEntity
8
0
100
AcDbLine
10
113.0000016838312
20
47.000000700354569
30
0
11
103.00000153481959
21
47.000000700354569
31
0
0
LINE
5
215
100
AcDbEntity
8
0
100
AcDbLine
10
50.960985012100053
20
47.518424366899453
30
0
11
37.061490075488386
21
47.518424366899453
31
0
0
LINE
5
216
100
AcDbEntity
8
0
100
AcDbLine
10
37.061490075488386
20
47.518424366899453
30
0
11
37.061490075488386
21
33.618929430287778
31
0
0
ARC
5
217
100
AcDbEntity
8
0
100
AcDbCircle
10
-2.7799999999990703
20
-27.918897274574498
30
1.5053010847239246e-46
40
1.0000000000069038
210
4.9303806576312461e-32
220
8.5396697996723773e-32
230
1
100
AcDbArc
50
180
51
240.00000000000071
0
LINE
5
218
100
AcDbEntity
8
0
100
AcDbLine
10
80.138492467212089
20
-76.946611759679683
30
0
11
80.322540378507838
21
-77.052871870810037
31
0
0
ARC
5
219
100
AcDbEntity
8
0
100
AcDbCircle
10
80.822540378507725
20
-76.186846467025532
30
-7.3691330374893945e-45
40
0.99999999999999889
210
-3.3453885265522003e-32
220
1.9314609663490485e-32
230
1
100
AcDbArc
50
240.00000000000759
51
299.99999999985056
0
ARC
5
220
100
AcDbEntity
8
0
100
AcDbCircle
10
146.95790440485823
20
-38.003576243457296
30
0
40
0.99999999990032662
210
0
220
0
230
1
100
AcDbArc
50
-60.000000000001101
51
0
0
ARC
5
221
100
AcDbEntity
8
0
100
AcDbCircle
10
146.9579044048439
20
58.532322141346313
30
-7.1843915407278219e-46
40
1.0000000000000853
210
4.2698348998359796e-32
220
-2.465190328816004e-32
230
1
100
AcDbArc
50
0
51
59.999999999997058
0
LINE
5
222
100
AcDbEntity
8
0
100
AcDbLine
10
82.616987851271873
20
96.83426817183684
30
0
11
93.116987851271929
21
90.772090345345845
31
9.8607613152626476e-31
0
LINE
5
223
100
AcDbEntity
8
0
100
AcDbLine
10
-3.780000000001134
20
32.39476517819697
30
0
11
-3.2154136153931616
21
33.372657481599617
31
0
0
LINE
5
224
100
AcDbEntity
8
0
100
AcDbLine
10
80.322540378386066
20
97.581617768759102
30
0
11
-2.9636699279123895
21
49.496301828617504
31
0
0
LINE
5
225
100
AcDbEntity
8
0
100
AcDbLine
10
-2.9636699279123895
20
49.496301828617504
30
0
11
-3.780000000001134
21
32.39476517819697
31
0
0
LINE
5
226
100
AcDbEntity
8
0
100
AcDbLine
10
-3.780000000001134
20
32.39476517819697
30
0
11
-3.7800000000059741
21
-27.918897274574512
31
4.9303806576654126e-32
0
LINE
5
227
100
AcDbEntity
8
0
100
AcDbLine
10
-3.2800000000025125
20
-28.784922678364921
30
0
11
80.138492467212089
21
-76.946611759679683
31
0
0
LINE
5
228
100
AcDbEntity
8
0
100
AcDbLine
10
81.322540378505465
20
-77.052871870811273
30
0
11
147.45790440480837
21
-38.869601647155427
31
0
0
LINE
5
229
100
AcDbEntity
8
0
100
AcDbLine
10
147.95790440475855
20
-38.003576243455129
30
3.3896367021215351e-30
11
147.95790440484399
21
58.532322141346484
31
-4.2698348998359993e-32
0
ARC
5
230
100
AcDbEntity
8
0
100
AcDbCircle
10
80.822540378386108
20
96.71559236497508
30
-2.1471067290289433e-44
40
0.99999999999966016
210
-1.8488927466119895e-32
220
3.2023761748759705e-32
230
1
100
AcDbArc
50
94.219891374250466
51
120.00000000001407
0
LINE
5
231
100
AcDbEntity
8
0
100
AcDbLine
10
80.7489559480385
20
97.712881355995108
30
-3.3297442238440377e-32
11
82.616987851271873
21
96.83426817183684
31
0
0
LINE
5
232
100
AcDbEntity
8
0
100
AcDbLine
10
93.116987851271929
20
90.772090345345845
30
9.8607613152626476e-31
11
147.45790440484399
21
59.398347545130797
31
0
0
LINE
5
233
100
AcDbEntity
8
0
100
AcDbLine
10
50.960985012100068
20
47.518424366899453
30
0
11
103.00000153481959
21
47.000000700354569
31
0
0
LINE
5
234
100
AcDbEntity
8
0
100
AcDbLine
10
113.0000016838312
20
37.523077205850235
30
0
11
113.0000016838312
21
-22.481575633100551
31
0
0
LINE
5
235
100
AcDbEntity
8
0
100
AcDbLine
10
102.61225004984489
20
-26.445482143850381
30
0
11
48.000000715255723
21
-26.451484830683182
31
0
0
LINE
5
236
100
AcDbEntity
8
0
100
AcDbLine
10
37.472224070364597
20
-15.926409219486573
30
0
11
37.061490075488386
21
33.618929430287778
31
0
0
CIRCLE
5
237
100
AcDbEntity
8
0
100
AcDbCircle
10
2.2200000000001814
20
45.560891826607502
30
0
40
1.6000000000000003
210
-8.8497105131785406e-63
220
-4.9303806576313238e-32
230
1
0
CIRCLE
5
238
100
AcDbEntity
8
0
100
AcDbCircle
10
71.822540378473803
20
84.591236711941946
30
0
40
1.6000000000000003
210
-8.8497105131785406e-63
220
-4.9303806576313238e-32
230
1
0
CIRCLE
5
239
100
AcDbEntity
8
0
100
AcDbCircle
10
12.220000000000963
20
-29.650948082165179
30
0
40
1.6000000000000003
210
-8.8497105131785449e-63
220
-4.9303806576313238e-32
230
1
0
CIRCLE
5
240
100
AcDbEntity
8
0
100
AcDbCircle
10
80.822540378405435
20
-70.413343775188295
30
0
40
1.6000000000000003
210
-8.8497105131785406e-63
220
-4.9303806576313238e-32
230
1
0
CIRCLE
5
241
100
AcDbEntity
8
0
100
AcDbCircle
10
140.95790440477049
20
-24.14716978295688
30
0
40
1.4749999999999999
210
0
220
-0
230
1
0
CIRCLE
5
242
100
AcDbEntity
8
0
100
AcDbCircle
10
141.95790440483967
20
55.645570795400673
30
0
40
1.6000000000000003
210
-8.8497105131785406e-63
220
-4.9303806576313238e-32
230
1
0
ENDSEC
0
SECTION
2
OBJECTS
0
DICTIONARY
5
C
100
AcDbDictionary
3
ACAD_GROUP
350
D
3
ACAD_MLINESTYLE
350
17
0
DICTIONARY
5
D
100
AcDbDictionary
0
DICTIONARY
5
1A
330
C
100
AcDbDictionary
0
DICTIONARY
5
17
100
AcDbDictionary
0
ENDSEC
0
EOF
